<?xml version="1.0" encoding="iso-8859-1"?>
<!DOCTYPE svg PUBLIC "-//W3C//DTD SVG 1.1//EN" "http://www.w3.org/Graphics/SVG/1.1/DTD/svg11.dtd">
<svg 
 version="1.1" xmlns="http://www.w3.org/2000/svg" xmlns:xlink="http://www.w3.org/1999/xlink" x="0px" y="0px" width="512px"
	 height="512px" viewBox="0 0 512 512" style="enable-background:new 0 0 512 512;" xml:space="preserve"
><g id="afcae5a789ccd549f9c6e2a2f81c43fd"><g></g><g fill="#000000"><path style="display: inline;" d="M388.216,511.5c0,0-26.755-33.46-53.182-89.336h10.302v-17.868h-18.389
		c-11.271-26.092-21.965-56.165-29.892-89.333h12.547v-17.868h-16.632c-16.062-72.697-23.839-142.771-27.561-196.541h17.391V82.689
		h-8.936V71.967c0-3.882-4.705-7.05-10.501-7.132C261.582,25.073,262.138,0.5,262.138,0.5H256h-6.138c0,0,0.556,24.573-1.227,64.335
		c-5.796,0.082-10.501,3.25-10.501,7.132v10.722h-8.936v17.865h17.391c-3.722,53.77-11.499,123.843-27.561,196.541h-16.632v17.868
		h12.547c-7.927,33.168-18.617,63.241-29.892,89.333h-18.389v17.868h10.301c-26.426,55.876-53.181,89.336-53.181,89.336h62.684
		c0,0-4.537-39.052,18.382-64.11c17.638-19.28,51.15-21.329,51.15-21.329s33.513,2.049,51.149,21.329
		c22.92,25.059,18.382,64.11,18.382,64.11H388.216z M256,269.755c10.066,0,18.229,10.202,18.229,22.784
		c0,1.562-0.128,3.087-0.371,4.556h-35.716c-0.242-1.469-0.37-2.994-0.37-4.556C237.771,279.957,245.934,269.755,256,269.755z
		 M291.018,404.296h-70.035c-0.47-2.884-0.716-5.871-0.716-8.933c0-24.666,16.001-44.666,35.733-44.666s35.733,20,35.733,44.666
		C291.733,398.425,291.487,401.412,291.018,404.296z"></path></g></g></svg>