<?xml version="1.0" encoding="iso-8859-1"?>
<!DOCTYPE svg PUBLIC "-//W3C//DTD SVG 1.1//EN" "http://www.w3.org/Graphics/SVG/1.1/DTD/svg11.dtd">
<svg 
 version="1.1" xmlns="http://www.w3.org/2000/svg" xmlns:xlink="http://www.w3.org/1999/xlink" x="0px" y="0px" width="512px"
	 height="512px" viewBox="0 0 512 512" style="enable-background:new 0 0 512 512;" xml:space="preserve"
><g id="afcae5a789ccd549f9c6e2a2f817f6f9"><g></g><path style="display: inline;" d="M511.499,447.859c0,35.422-114.393,64.141-255.498,64.141c-141.107,0-255.5-28.719-255.5-64.141
		c0-10.871,10.804-21.101,29.816-30.066c0,2.595,0.009,4.957,0.009,6.857c0.009,1.064,0.009,2.412,0.116,3.888l-0.133,0.707v1.397
		c0,18.098,21.832,29.542,72.99,38.267c40.903,6.97,95.131,10.813,152.701,10.813c57.571,0,111.796-3.843,152.699-10.813
		c51.167-8.725,72.991-20.169,72.991-38.267v-1.672l-0.125-0.557c0.1-1.427,0.1-2.729,0.108-3.76
		c0.008-1.904,0.008-4.267,0.017-6.861C500.695,426.759,511.499,436.988,511.499,447.859z M43.085,430.643c0-0.274,0-0.274,0-0.274
		c0.066-0.304,0.091-0.549,0.058-0.549s-0.058-7.984-0.058-17.74V277.243c0-1.423,0.199-2.712,0.499-3.926
		c-0.292-0.782-0.499-1.568-0.499-2.362c0-11.877,33.459-22.423,85.166-29.052v-96.652h0.433c1.972-4.857,10.563-8.517,20.859-8.517
		c10.305,0,18.888,3.66,20.867,8.517h0.425v92.424c19.894-1.485,41.36-2.467,63.875-2.849v-89.575h0.432
		c1.972-4.857,10.563-8.517,20.859-8.517c10.305,0,18.889,3.66,20.868,8.517h0.424v89.575c22.515,0.382,43.98,1.363,63.875,2.849
		v-92.424h0.433c1.971-4.857,10.561-8.517,20.857-8.517c10.305,0,18.888,3.66,20.867,8.517h0.424v96.652
		c51.716,6.629,85.167,17.175,85.167,29.052c0,0.794-0.199,1.58-0.499,2.362c0.3,1.214,0.499,2.503,0.499,3.926v134.836
		c0,9.756-0.025,17.74-0.059,17.74s-0.008,0.245,0.059,0.549c0,0,0,0,0,0.274c0,20.048-95.321,36.304-212.915,36.304
		C138.415,466.946,43.085,450.69,43.085,430.643z M458.271,283.156c0-0.341-0.025-0.591-0.059-0.836
		c-27.987,14.48-107.912,24.938-202.211,24.938S81.775,296.801,53.789,282.32c-0.025,0.241-0.059,0.495-0.059,0.836v64.208
		c7.727,3.052,13.781,5.992,19.271,8.658c14.339,6.961,23.812,11.564,51.716,11.564c22.015,0,32.387-5.926,44.396-12.792
		c12.8-7.311,27.305-15.599,54.967-15.599c27.671,0,42.168,8.288,54.968,15.599c12.01,6.866,22.381,12.792,44.396,12.792
		c22.007,0,32.376-5.926,44.386-12.792c12.801-7.311,27.297-15.599,54.96-15.599c14.612,0,25.882,3.136,35.48,7.519V283.156z
		 M128.251,273.001v-13.24c-24.61,3.26-42.857,7.178-54.651,10.854c7.137,1.987,16.851,4.325,28.869,6.371
		c41.169,7.023,95.695,10.887,153.532,10.887c57.846,0,112.37-3.863,153.54-10.887c12.01-2.046,21.732-4.384,28.859-6.371
		c-11.793-3.672-30.032-7.594-54.651-10.854v13.24h-42.581v-17.574c-18.971-1.438-40.263-2.457-63.875-2.844v20.418H234.71v-20.418
		c-23.612,0.387-44.896,1.405-63.875,2.844v17.574H128.251z M228.322,86.167c0-0.699,6.429-70.263,27.679-70.263
		s27.68,69.564,27.68,70.263c0,15.262-12.418,27.679-27.68,27.679S228.322,101.429,228.322,86.167z M241.097,86.167
		c0,8.217,6.688,14.904,14.904,14.904c8.218,0,14.904-6.687,14.904-14.904c0-13.44-8.666-50.526-14.904-56.968
		C249.771,35.641,241.097,72.727,241.097,86.167z M121.863,86.167c0-0.699,6.43-70.263,27.68-70.263s27.679,69.564,27.679,70.263
		c0,15.262-12.417,27.679-27.679,27.679S121.863,101.429,121.863,86.167z M134.639,86.167c0,8.217,6.687,14.904,14.904,14.904
		c8.217,0,14.904-6.687,14.904-14.904c0-13.44-8.667-50.526-14.904-56.968C143.313,35.641,134.639,72.727,134.639,86.167z
		 M334.78,86.167c0-0.699,6.43-70.263,27.678-70.263c21.25,0,27.679,69.564,27.679,70.263c0,15.262-12.417,27.679-27.679,27.679
		C347.198,113.846,334.78,101.429,334.78,86.167z M347.556,86.167c0,8.217,6.685,14.904,14.902,14.904
		c8.217,0,14.904-6.687,14.904-14.904c0-13.44-8.667-50.526-14.904-56.968C356.229,35.641,347.556,72.727,347.556,86.167z"></path></g></svg>